<?xml version="1.0" encoding="UTF-8"?><svg id="Layer_2" xmlns="http://www.w3.org/2000/svg" viewBox="0 0 215.32 79.34"><g id="Layer_1-2"><g><path d="M142.42,16.95V49.54c0,9.65,5.22,14.61,14.96,14.61,3.45,0,6.02-.62,7.79-1.24v-9.92c-1.51,.62-2.92,.89-4.87,.89-3.28,0-5.14-1.77-5.14-5.49V26.07h9.74v-9.12"/><path d="M0,50.42c0-10.8,9.92-14.88,24.08-14.88h5.22v-1.86c0-5.49-1.68-8.5-7.53-8.5-5.05,0-7.35,2.57-7.88,6.55H1.77c.8-10.98,9.47-15.85,20.81-15.85s19.39,4.6,19.39,17.18v30.19h-9.29l-3.19-5.58c-2.66,3.72-6.73,6.55-13.99,6.55-8.41,0-15.5-4.07-15.5-13.81Zm29.31-3.36v-3.9h-4.96c-7.44,0-11.78,1.59-11.78,6.55,0,3.36,2.04,5.58,6.73,5.58,5.67,0,10.01-3.1,10.01-8.23Z"/><path d="M47.53,16.95h12.84v7.08c2.3-4.34,7.26-8.15,14.17-8.15,6.11,0,10.71,2.57,12.93,8.06,3.72-5.58,9.74-8.06,15.58-8.06,8.59,0,15.23,5.4,15.23,17.71v29.66h-12.75v-28.25c0-5.93-2.66-8.59-7.26-8.59-4.96,0-8.94,3.19-8.94,9.47v27.36h-12.75v-28.25c0-5.93-2.74-8.59-7.26-8.59-4.96,0-8.94,3.19-8.94,9.47v27.36h-12.84V16.95Z"/><path d="M124.06,16.95h12.75V63.26h-12.75V16.95Z"/><path d="M124.06,0h12.75V12.33h-12.75V0Z"/><path d="M142.39,0h12.75V12.33h-12.75V0Z"/><path d="M202.18,16.95l-10.1,31.64h-.18l-10.46-31.64h-13.5l16.18,43.35c.36,.89,.54,1.85,.54,2.86,0,1.37-.4,2.62-1.21,3.75-.8,1.13-2.04,1.79-3.71,1.97h-11.8v10.46h11.8c.12,0,.24,0,.36,0,4.35,0,7.75-.8,10.19-2.41,2.44-1.61,4.35-4.29,5.72-8.04l19.31-51.93h-13.14Z"/></g></g></svg>